<svg xmlns="http://www.w3.org/2000/svg" x="0px" y="0px" width="80" height="80" viewBox="0 0 226 226" style=" fill:#000000;"><g fill="none" fill-rule="nonzero" stroke="none" stroke-width="1" stroke-linecap="butt" stroke-linejoin="miter" stroke-miterlimit="10" stroke-dasharray="" stroke-dashoffset="0" font-family="none" font-weight="none" font-size="none" text-anchor="none" style="mix-blend-mode: normal"><path d="M0,226v-226h226v226z" fill="none"></path><g fill="#2b2b2b"><path d="M224.99359,204.97141l-108.07391,-187.20922c-1.62438,-2.78969 -6.215,-2.78969 -7.83938,0l-108.48,187.89781c-0.79453,1.39484 -0.79453,3.12516 0,4.52c0.81219,1.39484 2.31297,2.26 3.91969,2.26h216.96c0.03531,0 0.07062,0 0.08828,0c2.50719,0 4.52,-2.01281 4.52,-4.52c0,-1.13 -0.40609,-2.15406 -1.09469,-2.94859zM106.18469,87.08063c0,-0.97109 0.65328,-1.62438 1.62438,-1.62438h10.38187c0.97109,0 1.60672,0.65328 1.60672,1.62438v65.36344c0,0.97109 -0.63562,1.62438 -1.60672,1.62438h-10.38187c-0.97109,0 -1.62438,-0.65328 -1.62438,-1.62438zM120.13313,180.5175c0,0.97109 -0.65328,1.60672 -1.60672,1.60672h-11.03516c-0.97109,0 -1.60672,-0.65328 -1.60672,-1.60672v-11.84734c0,-0.97109 0.65328,-1.60672 1.60672,-1.60672h11.03516c0.97109,0 1.60672,0.63563 1.60672,1.60672z"></path></g></g></svg>